<svg xmlns="http://www.w3.org/2000/svg" viewBox="0 0 400.53 269.48"><defs><style>.cls-1{fill:#dcdddd;}.cls-2{fill:#c9caca;}.cls-3{fill:#727171;}.cls-4{fill:#81c03a;}.cls-4,.cls-5,.cls-6,.cls-7{opacity:0.9;}.cls-5{fill:#27a4de;}.cls-6{fill:#e95d9d;}.cls-7{fill:#f5c62b;}.cls-8{fill:none;}</style></defs><title>cplogo</title><g id="图层_2" data-name="图层 2"><g id="图层_1-2" data-name="图层 1"><polygon class="cls-1" points="342.91 172.63 313.06 224.34 253.36 224.34 253.36 224.32 283.21 172.63 342.91 172.63"/><polygon class="cls-2" points="283.21 172.63 253.36 224.32 223.52 172.63 253.36 120.94 283.21 172.63"/><polygon class="cls-3" points="400.53 189.56 400.53 207.39 383.29 207.39 383.29 224.07 365.45 224.07 365.45 207.39 348.2 207.39 348.2 189.56 365.45 189.56 365.45 172.89 383.29 172.89 383.29 189.56 400.53 189.56"/><path class="cls-4" d="M327.94,172.64,305.56,211.4H260.79l44.77-77.53h0L313,120.94H253.33l-29.85,51.7L246,211.56l7.37,12.76H313l29.85-51.68Zm-89.54,0,22.39-38.78h30l-37.41,64.78Z"/><polygon class="cls-1" points="268.38 120.92 238.53 172.63 178.84 172.63 178.84 172.62 208.68 120.92 268.38 120.92"/><polygon class="cls-2" points="208.68 120.92 178.84 172.62 148.99 120.92 178.84 69.23 208.68 120.92"/><path class="cls-5" d="M238.53,69.24,208.92,18,201.4,30.78l7.29,12.61,14.92,25.85H178.84l-.11.18L149,120.94l29.85,51.7h59.69l29.85-51.7Zm-7.46,90.47H186.3l-22.38-38.77L186.3,82.17h44.77l22.38,38.77Z"/><polygon class="cls-1" points="193.89 172.63 164.04 224.34 104.35 224.34 104.35 224.32 134.19 172.63 193.89 172.63"/><polygon class="cls-2" points="134.19 172.63 104.35 224.32 74.5 172.63 104.35 120.94 134.19 172.63"/><path class="cls-6" d="M164,120.94H104.35L74.5,172.64l29.85,51.68H164l29.85-51.68Zm-7.47,90.46H111.8L89.42,172.64l22.38-38.78h44.77L179,172.64Z"/><polygon class="cls-1" points="119.39 120.91 89.54 172.62 29.85 172.62 29.85 172.6 59.7 120.91 119.39 120.91"/><polygon class="cls-2" points="59.7 120.91 29.85 172.6 0 120.91 29.85 69.22 59.7 120.91"/><polygon class="cls-7" points="119.39 120.92 89.54 172.62 29.85 172.62 0 120.92 29.85 69.22 89.54 69.22 82.08 82.15 37.31 82.15 14.93 120.92 37.31 159.69 82.08 159.69 104.46 120.92 119.39 120.92"/><rect class="cls-8" width="400.53" height="269.48"/></g></g></svg>