<svg version="1" xmlns="http://www.w3.org/2000/svg" width="906.667" height="906.667" viewBox="0 0 680.000000 680.000000"><path d="M224.2 25c0 9.3-.3 17.4-.7 18-.3.5-.3 1 .2 1 .9 0 .8 20.3-.1 22.6-.3.8-.2 1.4.2 1.4.6 0 .7 55.4.2 57-.2.3-.2.9-.1 1.4.3 1.3.3 25 .1 26.1-.1.5-.1 1.4 0 2 .3 1.2.2 64.6 0 66-.1.5-.3 1.7-.4 2.5-.1 1.3-13.2 1.5-111.6 1.5H.5L.2 340.2C0 449.7.1 455.8 1.7 456.1c1 .3 51.4.4 112.1.4l110.2-.1.1 2.5c.1 5.5 0 49.6-.1 50.1-.2.3-.2.9-.1 1.4.1.4.1 3.1.1 6 0 2.8-.1 5.8-.1 6.6 0 .8.1 6.5.2 12.6s-.1 11.6-.5 12.3c-.4.6-.4 1.1.1 1.1.4 0 .7 7.8.6 17.2-.2 9.5-.3 20-.2 23.3.2 16.2 0 21.5-.6 22.4-.3.6-.3 1.1.2 1.1.4 0 .7 7.8.6 17.2-.2 9.5-.3 20-.2 23.3 0 3.3.1 9 .1 12.7l.1 6.8h231.5V565.2c.1-59.2.1-107.9.1-108.2.1-.4 49.9-.6 110.9-.5 60.9 0 111.3-.1 112-.3.9-.3 1.2-24.4 1.2-116.1V224.5H568.4c-62.4 0-111.8-.3-112.1-.8-.3-.5-.5-49.2-.5-108.3V8H224.3l-.1 17z"/></svg>